<svg width="88" height="127" viewBox="0 0 88 127" fill="none" xmlns="http://www.w3.org/2000/svg">
<path fill-rule="evenodd" clip-rule="evenodd" d="M22 9.49485L21.9211 12.0435C21.688 19.5796 16.6395 25.6234 10.3476 25.8989L8.03775 26L10.3476 26.1011C16.6395 26.3766 21.688 32.4204 21.9211 39.9565L22 42.5052L22.0789 39.9565C22.312 32.4204 27.3605 26.3766 33.6524 26.1011L35.9622 26L33.6524 25.8989C27.3605 25.6234 22.312 19.5796 22.0789 12.0435L22 9.49485ZM21.707 2.61646e-09L22.293 0L22.6648 12.0175C22.8866 19.186 27.6888 24.935 33.6738 25.197L44 25.6491V26.3509L33.6738 26.803C27.6888 27.065 22.8866 32.814 22.6648 39.9825L22.293 52H21.707L21.3352 39.9825C21.1133 32.814 16.3112 27.065 10.3262 26.803L3.27666e-09 26.3509L0 25.6491L10.3262 25.197C16.3112 24.935 21.1133 19.186 21.3352 12.0175L21.707 2.61646e-09Z" fill="white"/>
<path fill-rule="evenodd" clip-rule="evenodd" d="M22 84.4948L21.9211 87.0435C21.688 94.5796 16.6395 100.623 10.3476 100.899L8.03775 101L10.3476 101.101C16.6395 101.377 21.688 107.42 21.9211 114.956L22 117.505L22.0789 114.956C22.312 107.42 27.3605 101.377 33.6524 101.101L35.9622 101L33.6524 100.899C27.3605 100.623 22.312 94.5796 22.0789 87.0435L22 84.4948ZM21.707 75L22.293 75L22.6648 87.0175C22.8866 94.186 27.6888 99.935 33.6738 100.197L44 100.649V101.351L33.6738 101.803C27.6888 102.065 22.8866 107.814 22.6648 114.982L22.293 127H21.707L21.3352 114.982C21.1133 107.814 16.3112 102.065 10.3262 101.803L3.27666e-09 101.351L0 100.649L10.3262 100.197C16.3112 99.935 21.1133 94.186 21.3352 87.0175L21.707 75Z" fill="white"/>
<path fill-rule="evenodd" clip-rule="evenodd" d="M66 46.4948L65.9211 49.0435C65.688 56.5796 60.6395 62.6234 54.3476 62.8989L52.0377 63L54.3476 63.1011C60.6395 63.3766 65.688 69.4204 65.9211 76.9565L66 79.5052L66.0789 76.9565C66.312 69.4204 71.3605 63.3766 77.6524 63.1011L79.9622 63L77.6524 62.8989C71.3605 62.6234 66.312 56.5796 66.0789 49.0435L66 46.4948ZM65.707 37L66.293 37L66.6648 49.0175C66.8866 56.186 71.6888 61.935 77.6738 62.197L88 62.6491V63.3509L77.6738 63.803C71.6888 64.065 66.8866 69.814 66.6648 76.9825L66.293 89H65.707L65.3352 76.9825C65.1133 69.814 60.3112 64.065 54.3262 63.803L44 63.3509L44 62.6491L54.3262 62.197C60.3112 61.935 65.1133 56.186 65.3352 49.0175L65.707 37Z" fill="white"/>
</svg>
